<svg width="80" height="80" viewBox="0 0 80 80" fill="none" xmlns="http://www.w3.org/2000/svg">
<path d="M14.3217 43.2173C14.8158 42.7124 15.4894 42.4253 16.1943 42.419C16.8993 42.4128 17.5779 42.6879 18.0808 43.184C18.5836 43.68 18.8697 44.3563 18.8759 45.0641C18.8821 45.7719 18.608 46.4531 18.1139 46.958L13.8287 51.2413C12.8476 52.2241 12.0695 53.3918 11.5391 54.6773C11.0087 55.9628 10.7365 57.3409 10.738 58.7323C10.7349 60.1266 11.0093 61.5074 11.5449 62.7938C12.0805 64.0801 12.8666 65.2461 13.8571 66.2233C15.8461 68.2054 18.5349 69.3177 21.3374 69.3177C24.1398 69.3177 26.8286 68.2054 28.8176 66.2233L36.222 58.7323L19.3843 41.8466C18.8815 41.3417 18.5989 40.657 18.5989 39.943C18.5989 39.2289 18.8815 38.5442 19.3843 38.0393C19.8872 37.5344 20.5693 37.2507 21.2805 37.2507C21.9917 37.2507 22.6737 37.5344 23.1766 38.0393L41.9104 56.8572C42.1604 57.1067 42.3587 57.4033 42.4941 57.73C42.6294 58.0567 42.6991 58.407 42.6991 58.7609C42.6991 59.1147 42.6294 59.4651 42.4941 59.7918C42.3587 60.1185 42.1604 60.4151 41.9104 60.6646L32.5625 70.0212C29.5802 73.0076 25.54 74.6848 21.3279 74.6848C17.1158 74.6848 13.0755 73.0076 10.0933 70.0212C7.12059 67.032 5.44414 62.985 5.42881 58.7609C5.4266 56.6676 5.83769 54.5947 6.63832 52.6619C7.43895 50.7292 8.61324 48.9749 10.0933 47.5006L14.3217 43.2173Z" fill="white"/>
<path d="M16.8151 39.2292C16.564 38.9804 16.3646 38.684 16.2285 38.3572C16.0924 38.0304 16.0223 37.6797 16.0223 37.3255C16.0223 36.9713 16.0924 36.6206 16.2285 36.2938C16.3646 35.967 16.564 35.6706 16.8151 35.4218C17.0602 35.165 17.3545 34.9606 17.6804 34.821C18.0063 34.6814 18.3569 34.6094 18.7112 34.6094C19.0655 34.6094 19.4161 34.6814 19.742 34.821C20.0678 34.9606 20.3622 35.165 20.6073 35.4218L44.5365 59.4368C44.7948 59.6815 45.0005 59.9765 45.1411 60.3039C45.2817 60.6313 45.3543 60.984 45.3543 61.3405C45.3543 61.697 45.2817 62.0497 45.1411 62.3771C45.0005 62.7044 44.7948 62.9995 44.5365 63.2442C44.2881 63.4951 43.9926 63.6943 43.6672 63.8302C43.3418 63.9661 42.9928 64.036 42.6404 64.036C42.2879 64.036 41.939 63.9661 41.6136 63.8302C41.2882 63.6943 40.9927 63.4951 40.7443 63.2442L16.8151 39.2292Z" fill="white"/>
<path d="M25.8881 44.5406C25.6432 44.7876 25.3521 44.9835 25.0316 45.1172C24.7111 45.2509 24.3675 45.3197 24.0204 45.3197C23.6733 45.3197 23.3297 45.2509 23.0092 45.1172C22.6886 44.9835 22.3976 44.7876 22.1527 44.5406C21.8945 44.296 21.6887 44.0009 21.5481 43.6735C21.4075 43.3462 21.335 42.9934 21.335 42.637C21.335 42.2805 21.4075 41.9277 21.5481 41.6004C21.6887 41.273 21.8945 40.9779 22.1527 40.7333L32.7995 30.0726C33.305 29.5727 33.9861 29.2925 34.6956 29.2925C35.4052 29.2925 36.0863 29.5727 36.5918 30.0726C36.8429 30.3214 37.0422 30.6178 37.1783 30.9446C37.3144 31.2714 37.3845 31.6221 37.3845 31.9763C37.3845 32.3305 37.3144 32.6812 37.1783 33.008C37.0422 33.3348 36.8429 33.6312 36.5918 33.88L25.8881 44.5406Z" fill="white"/>
<path d="M39.2273 57.8664C38.9815 58.1221 38.6869 58.3254 38.3612 58.4642C38.0354 58.6031 37.6851 58.6746 37.3312 58.6746C36.9773 58.6746 36.627 58.6031 36.3012 58.4642C35.9754 58.3254 35.6809 58.1221 35.435 57.8664C35.1835 57.6247 34.9834 57.3344 34.8466 57.013C34.7099 56.6915 34.6394 56.3456 34.6394 55.9961C34.6394 55.6465 34.7099 55.3006 34.8466 54.9791C34.9834 54.6577 35.1835 54.3674 35.435 54.1257L46.1103 43.4365C46.6132 42.9316 47.2952 42.6479 48.0064 42.6479C48.7176 42.6479 49.3997 42.9316 49.9025 43.4365C50.4054 43.9414 50.6879 44.6261 50.6879 45.3402C50.6879 46.0542 50.4054 46.739 49.9025 47.2439L39.2273 57.8664Z" fill="white"/>
<path d="M4.58499 79.2159C4.08069 79.7181 3.39916 79.9999 2.68885 79.9999C1.97855 79.9999 1.29702 79.7181 0.792722 79.2159C0.541618 78.9671 0.342239 78.6707 0.206157 78.3439C0.0700744 78.0171 0 77.6664 0 77.3122C0 76.958 0.0700744 76.6073 0.206157 76.2805C0.342239 75.9537 0.541618 75.6573 0.792722 75.4085L8.78492 67.4035C9.03392 67.1535 9.32953 66.9552 9.65487 66.8199C9.98021 66.6846 10.3289 66.615 10.6811 66.615C11.0332 66.615 11.3819 66.6846 11.7072 66.8199C12.0326 66.9552 12.3282 67.1535 12.5772 67.4035C12.8262 67.6535 13.0237 67.9503 13.1585 68.2769C13.2932 68.6036 13.3626 68.9537 13.3626 69.3072C13.3626 69.6608 13.2932 70.0108 13.1585 70.3375C13.0237 70.6641 12.8262 70.9609 12.5772 71.2109L4.58499 79.2159Z" fill="white"/>
<path d="M69.9636 10.0073C70.2219 10.252 70.4276 10.5471 70.5682 10.8744C70.7089 11.2018 70.7814 11.5545 70.7814 11.911C70.7814 12.2675 70.7089 12.6202 70.5682 12.9476C70.4276 13.2749 70.2219 13.57 69.9636 13.8147C69.4593 14.3169 68.7778 14.5987 68.0675 14.5987C67.3572 14.5987 66.6757 14.3169 66.1714 13.8147C65.1909 12.8252 64.0253 12.0401 62.7415 11.5043C61.4578 10.9686 60.0813 10.6928 58.6911 10.6928C57.3009 10.6928 55.9244 10.9686 54.6407 11.5043C53.357 12.0401 52.1914 12.8252 51.2109 13.8147L43.8065 21.2676L58.748 36.2116L66.2283 28.7586C67.4241 27.5572 68.315 26.085 68.826 24.4658C69.3384 22.8357 69.4586 21.1068 69.1768 19.421C69.1145 19.076 69.1205 18.7221 69.1945 18.3795C69.2685 18.0368 69.409 17.7122 69.608 17.424C69.8069 17.1359 70.0605 16.8899 70.3541 16.7001C70.6478 16.5104 70.9758 16.3805 71.3194 16.318C71.663 16.2555 72.0155 16.2616 72.3568 16.3359C72.6981 16.4102 73.0215 16.5512 73.3085 16.751C73.5955 16.9507 73.8405 17.2053 74.0295 17.5001C74.2185 17.7949 74.3478 18.1242 74.4101 18.4692C74.8558 21.0099 74.69 23.6207 73.9266 26.0839C73.155 28.5177 71.8046 30.7262 69.9921 32.5184L60.6157 41.8465C60.1102 42.3464 59.4291 42.6266 58.7196 42.6266C58.01 42.6266 57.329 42.3464 56.8235 41.8465L38.1181 23.1332C37.867 22.8844 37.6676 22.588 37.5315 22.2612C37.3955 21.9344 37.3254 21.5837 37.3254 21.2295C37.3254 20.8753 37.3955 20.5247 37.5315 20.1979C37.6676 19.8711 37.867 19.5747 38.1181 19.3259L47.466 9.96924C50.4483 6.98279 54.4885 5.30566 58.7006 5.30566C62.9127 5.30566 66.953 6.98279 69.9352 9.96924L69.9636 10.0073Z" fill="#0270ED"/>
<path d="M75.415 0.784002C75.9193 0.281795 76.6008 0 77.3111 0C78.0214 0 78.703 0.281795 79.2073 0.784002C79.4584 1.03281 79.6577 1.32921 79.7938 1.65601C79.9299 1.98281 80 2.33348 80 2.68769C80 3.04189 79.9299 3.39257 79.7938 3.71937C79.6577 4.04616 79.4584 4.34257 79.2073 4.59138L69.9921 13.8147C69.4878 14.3169 68.8062 14.5987 68.0959 14.5987C67.3856 14.5987 66.7041 14.3169 66.1998 13.8147C65.9487 13.5659 65.7493 13.2695 65.6132 12.9427C65.4772 12.6159 65.4071 12.2653 65.4071 11.9111C65.4071 11.5568 65.4772 11.2062 65.6132 10.8794C65.7493 10.5526 65.9487 10.2562 66.1998 10.0074L75.415 0.784002Z" fill="#0270ED"/>
</svg>
