<svg width="81" height="83" viewBox="0 0 81 83" fill="none" xmlns="http://www.w3.org/2000/svg">
<path d="M18.7883 57.0793H61.87C62.4281 57.0793 62.9666 56.8354 63.3387 56.4159C63.7108 55.9964 63.887 55.4404 63.8136 54.8843C62.1344 41.4995 54.9916 36.0951 52.0787 34.4219V23.9055C52.0787 7.38029 41.7782 1.03443 41.3377 0.770954C40.7208 0.400242 39.9424 0.400242 39.3207 0.770954C38.88 1.03435 28.5796 7.38517 28.5796 23.9055V34.4219C25.6668 36.0999 18.524 41.4995 16.8448 54.8843C16.7762 55.4403 16.9476 55.9964 17.3196 56.4159C17.6917 56.8354 18.2253 57.0793 18.7883 57.0793ZM52.0781 39.158C54.5798 41.2164 58.1242 45.3917 59.588 53.1771H52.0781V39.158ZM40.3285 4.85762C42.3798 6.53062 46.8789 11.1401 47.9363 20.008H32.7252C33.7827 11.1403 38.2867 6.52588 40.333 4.85762H40.3285ZM32.4955 23.9102H48.1616V53.1771H32.4955V23.9102ZM28.579 39.158V53.1771H21.0691C22.528 45.3874 26.0724 41.217 28.579 39.158Z" fill="white"/>
<path d="M40.3298 31.7158C37.089 31.7158 34.4551 34.3401 34.4551 37.5691C34.4551 40.7932 37.089 43.4223 40.3298 43.4223C43.5658 43.4223 46.2046 40.7981 46.2046 37.5691C46.2046 34.3449 43.5707 31.7158 40.3298 31.7158ZM40.3298 39.5202C39.2528 39.5202 38.3716 38.6422 38.3716 37.5691C38.3716 36.496 39.2528 35.618 40.3298 35.618C41.4069 35.618 42.2881 36.496 42.2881 37.5691C42.2881 38.6422 41.4069 39.5202 40.3298 39.5202Z" fill="#0270ED"/>
<path d="M32.4966 61.9563L32.4966 71.7124" stroke="#0270ED" stroke-width="4" stroke-linecap="round"/>
<path d="M41.3091 61.9563L41.3091 80.4929" stroke="#0270ED" stroke-width="4" stroke-linecap="round"/>
<path d="M23.6841 61.9563L23.6841 67.81" stroke="#0270ED" stroke-width="4" stroke-linecap="round"/>
<path d="M50.1216 61.9563L50.1216 71.7124" stroke="#0270ED" stroke-width="4" stroke-linecap="round"/>
<path d="M58.9341 61.9563L58.9341 67.81" stroke="#0270ED" stroke-width="4" stroke-linecap="round"/>
</svg>
