<svg width="130" height="41" viewBox="0 0 130 41" fill="none" xmlns="http://www.w3.org/2000/svg">
<circle cx="114" cy="20" r="16" fill="#0270ED"/>
<path d="M16.7944 14.6399C16.7021 13.6243 16.2912 12.8349 15.5618 12.2717C14.8416 11.6992 13.8121 11.413 12.4734 11.413C11.587 11.413 10.8484 11.5284 10.2575 11.7592C9.66655 11.9901 9.22337 12.3086 8.92791 12.7148C8.63246 13.1119 8.48011 13.5689 8.47088 14.0859C8.45242 14.5107 8.53551 14.8846 8.72017 15.2077C8.91406 15.5309 9.19105 15.8171 9.55114 16.0664C9.92046 16.3065 10.3636 16.5188 10.8807 16.7035C11.3977 16.8881 11.9794 17.0497 12.6257 17.1882L15.0632 17.7422C16.4666 18.0469 17.7038 18.4531 18.7749 18.9609C19.8551 19.4688 20.7599 20.0735 21.4893 20.7752C22.228 21.4769 22.7866 22.2848 23.1651 23.1989C23.5437 24.1129 23.7376 25.1378 23.7468 26.2734C23.7376 28.0646 23.2852 29.6019 22.3896 30.8853C21.494 32.1687 20.206 33.152 18.5256 33.8352C16.8544 34.5185 14.837 34.8601 12.4734 34.8601C10.1005 34.8601 8.03232 34.5046 6.26882 33.7937C4.50533 33.0827 3.13423 32.0025 2.15554 30.5529C1.17685 29.1033 0.673651 27.2706 0.645952 25.0547H7.21058C7.26598 25.9688 7.51065 26.7305 7.9446 27.3398C8.37855 27.9492 8.97408 28.4109 9.73118 28.7248C10.4975 29.0387 11.3839 29.1957 12.3903 29.1957C13.3136 29.1957 14.0984 29.071 14.7447 28.8217C15.4002 28.5724 15.9034 28.2262 16.2543 27.783C16.6051 27.3398 16.7852 26.832 16.7944 26.2596C16.7852 25.7241 16.619 25.267 16.2958 24.8885C15.9727 24.5007 15.4741 24.1683 14.8001 23.8913C14.1353 23.6051 13.2859 23.342 12.2518 23.1019L9.288 22.4094C6.83203 21.8462 4.89773 20.9368 3.48509 19.6811C2.07244 18.4162 1.37074 16.7081 1.37997 14.5568C1.37074 12.8026 1.84162 11.2653 2.79261 9.94496C3.74361 8.62464 5.0593 7.59517 6.7397 6.85653C8.4201 6.1179 10.3359 5.74858 12.4872 5.74858C14.6847 5.74858 16.5913 6.12251 18.207 6.87038C19.832 7.60902 21.0923 8.64773 21.9879 9.98651C22.8835 11.3253 23.3406 12.8764 23.359 14.6399H16.7944ZM32.206 34.8601C30.8487 34.8601 29.6438 34.6339 28.5913 34.1815C27.5479 33.7198 26.7216 33.0273 26.1122 32.104C25.5121 31.1715 25.212 30.0036 25.212 28.6001C25.212 27.4183 25.4197 26.4212 25.8352 25.6087C26.2507 24.7962 26.8232 24.136 27.5526 23.6282C28.282 23.1204 29.1222 22.7372 30.0732 22.4787C31.0241 22.2109 32.0398 22.0309 33.12 21.9386C34.3295 21.8278 35.3036 21.7124 36.0423 21.5923C36.7809 21.4631 37.3164 21.283 37.6488 21.0522C37.9904 20.8121 38.1612 20.4751 38.1612 20.0412V19.9719C38.1612 19.261 37.9165 18.7116 37.4272 18.3239C36.9379 17.9361 36.2777 17.7422 35.4467 17.7422C34.5511 17.7422 33.831 17.9361 33.2862 18.3239C32.7415 18.7116 32.3952 19.2472 32.2475 19.9304L26.0014 19.7088C26.1861 18.4162 26.6616 17.2621 27.4279 16.2464C28.2035 15.2216 29.2653 14.4183 30.6133 13.8366C31.9705 13.2457 33.6001 12.9503 35.5021 12.9503C36.8594 12.9503 38.1104 13.1119 39.2553 13.435C40.4002 13.7489 41.3974 14.2106 42.2468 14.82C43.0962 15.4201 43.7518 16.1587 44.2134 17.0359C44.6843 17.913 44.9197 18.9148 44.9197 20.0412V34.5H38.549V31.5362H38.3828C38.0043 32.2564 37.5195 32.8658 36.9286 33.3643C36.3469 33.8629 35.6591 34.2369 34.8651 34.4862C34.0803 34.7354 33.1939 34.8601 32.206 34.8601ZM34.2972 30.4283C35.0266 30.4283 35.6822 30.2805 36.2638 29.9851C36.8548 29.6896 37.3256 29.2834 37.6765 28.7663C38.0273 28.2401 38.2028 27.6307 38.2028 26.9382V24.9162C38.0089 25.0178 37.7734 25.1101 37.4964 25.1932C37.2287 25.2763 36.9332 25.3548 36.6101 25.4286C36.2869 25.5025 35.9545 25.5671 35.6129 25.6225C35.2713 25.6779 34.9435 25.7287 34.6296 25.7749C33.9925 25.8764 33.4478 26.0334 32.9954 26.2457C32.5522 26.4581 32.2106 26.7351 31.9705 27.0767C31.7397 27.4091 31.6243 27.8061 31.6243 28.2678C31.6243 28.9695 31.8736 29.505 32.3722 29.8743C32.88 30.2436 33.5217 30.4283 34.2972 30.4283ZM54.0575 34.8601C52.7003 34.8601 51.4954 34.6339 50.4428 34.1815C49.3995 33.7198 48.5732 33.0273 47.9638 32.104C47.3636 31.1715 47.0636 30.0036 47.0636 28.6001C47.0636 27.4183 47.2713 26.4212 47.6868 25.6087C48.1023 24.7962 48.6747 24.136 49.4041 23.6282C50.1335 23.1204 50.9737 22.7372 51.9247 22.4787C52.8757 22.2109 53.8913 22.0309 54.9716 21.9386C56.1811 21.8278 57.1552 21.7124 57.8938 21.5923C58.6325 21.4631 59.168 21.283 59.5004 21.0522C59.842 20.8121 60.0128 20.4751 60.0128 20.0412V19.9719C60.0128 19.261 59.7681 18.7116 59.2788 18.3239C58.7894 17.9361 58.1293 17.7422 57.2983 17.7422C56.4027 17.7422 55.6825 17.9361 55.1378 18.3239C54.593 18.7116 54.2468 19.2472 54.0991 19.9304L47.853 19.7088C48.0376 18.4162 48.5131 17.2621 49.2795 16.2464C50.055 15.2216 51.1168 14.4183 52.4648 13.8366C53.8221 13.2457 55.4517 12.9503 57.3537 12.9503C58.7109 12.9503 59.962 13.1119 61.1069 13.435C62.2518 13.7489 63.2489 14.2106 64.0984 14.82C64.9478 15.4201 65.6033 16.1587 66.065 17.0359C66.5359 17.913 66.7713 18.9148 66.7713 20.0412V34.5H60.4006V31.5362H60.2344C59.8558 32.2564 59.3711 32.8658 58.7802 33.3643C58.1985 33.8629 57.5107 34.2369 56.7166 34.4862C55.9318 34.7354 55.0455 34.8601 54.0575 34.8601ZM56.1488 30.4283C56.8782 30.4283 57.5337 30.2805 58.1154 29.9851C58.7063 29.6896 59.1772 29.2834 59.5281 28.7663C59.8789 28.2401 60.0543 27.6307 60.0543 26.9382V24.9162C59.8604 25.0178 59.625 25.1101 59.348 25.1932C59.0803 25.2763 58.7848 25.3548 58.4616 25.4286C58.1385 25.5025 57.8061 25.5671 57.4645 25.6225C57.1229 25.6779 56.7951 25.7287 56.4812 25.7749C55.8441 25.8764 55.2994 26.0334 54.8469 26.2457C54.4038 26.4581 54.0621 26.7351 53.8221 27.0767C53.5913 27.4091 53.4759 27.8061 53.4759 28.2678C53.4759 28.9695 53.7251 29.505 54.2237 29.8743C54.7315 30.2436 55.3732 30.4283 56.1488 30.4283ZM85.2436 14.6399C85.1513 13.6243 84.7404 12.8349 84.011 12.2717C83.2908 11.6992 82.2614 11.413 80.9226 11.413C80.0362 11.413 79.2976 11.5284 78.7067 11.7592C78.1158 11.9901 77.6726 12.3086 77.3771 12.7148C77.0817 13.1119 76.9293 13.5689 76.9201 14.0859C76.9016 14.5107 76.9847 14.8846 77.1694 15.2077C77.3633 15.5309 77.6403 15.8171 78.0004 16.0664C78.3697 16.3065 78.8129 16.5188 79.3299 16.7035C79.8469 16.8881 80.4286 17.0497 81.0749 17.1882L83.5124 17.7422C84.9158 18.0469 86.1531 18.4531 87.2241 18.9609C88.3043 19.4688 89.2092 20.0735 89.9386 20.7752C90.6772 21.4769 91.2358 22.2848 91.6143 23.1989C91.9929 24.1129 92.1868 25.1378 92.196 26.2734C92.1868 28.0646 91.7344 29.6019 90.8388 30.8853C89.9432 32.1687 88.6552 33.152 86.9748 33.8352C85.3036 34.5185 83.2862 34.8601 80.9226 34.8601C78.5497 34.8601 76.4815 34.5046 74.718 33.7937C72.9545 33.0827 71.5835 32.0025 70.6048 30.5529C69.6261 29.1033 69.1229 27.2706 69.0952 25.0547H75.6598C75.7152 25.9688 75.9599 26.7305 76.3938 27.3398C76.8278 27.9492 77.4233 28.4109 78.1804 28.7248C78.9467 29.0387 79.8331 29.1957 80.8395 29.1957C81.7628 29.1957 82.5476 29.071 83.1939 28.8217C83.8494 28.5724 84.3526 28.2262 84.7035 27.783C85.0543 27.3398 85.2344 26.832 85.2436 26.2596C85.2344 25.7241 85.0682 25.267 84.745 24.8885C84.4219 24.5007 83.9233 24.1683 83.2493 23.8913C82.5845 23.6051 81.7351 23.342 80.701 23.1019L77.7372 22.4094C75.2812 21.8462 73.3469 20.9368 71.9343 19.6811C70.5217 18.4162 69.82 16.7081 69.8292 14.5568C69.82 12.8026 70.2908 11.2653 71.2418 9.94496C72.1928 8.62464 73.5085 7.59517 75.1889 6.85653C76.8693 6.1179 78.7852 5.74858 80.9364 5.74858C83.1339 5.74858 85.0405 6.12251 86.6562 6.87038C88.2812 7.60902 89.5415 8.64773 90.4371 9.98651C91.3327 11.3253 91.7898 12.8764 91.8082 14.6399H85.2436ZM108.976 6.13636L114.156 15.0969H114.377L119.612 6.13636H127.285L118.726 20.3182L127.562 34.5H119.695L114.377 25.4425H114.156L108.837 34.5H101.026L109.821 20.3182L101.248 6.13636H108.976Z" fill="white"/>
</svg>
