<svg width="172" height="41" viewBox="0 0 172 41" fill="none" xmlns="http://www.w3.org/2000/svg">
<path d="M25.41 1.96989L21.477 0.915894L18.163 13.2859L15.17 2.11789L11.237 3.17289L14.47 15.2389L6.41699 7.18589L3.53799 10.0659L12.371 18.8979L1.37099 15.9499L0.316986 19.8829L12.336 23.1029C11.578 19.8349 12.901 16.4359 15.67 14.5409C18.439 12.6459 22.087 12.6439 24.859 14.5349C27.63 16.4249 28.959 19.8229 28.205 23.0919L39.128 26.0179L40.181 22.0849L28.115 18.8519L39.115 15.9039L38.062 11.9709L25.996 15.2039L34.048 7.15189L31.169 4.27189L22.459 12.9819L25.41 1.96989Z" fill="white"/>
<path d="M57.3491 17.8146C57.2809 17.1271 56.9883 16.593 56.4712 16.2123C55.9542 15.8317 55.2525 15.6413 54.3661 15.6413C53.7638 15.6413 53.2553 15.7265 52.8406 15.897C52.4258 16.0618 52.1076 16.2919 51.886 16.5873C51.6701 16.8828 51.5621 17.218 51.5621 17.593C51.5508 17.9055 51.6161 18.1782 51.7582 18.4112C51.9059 18.6442 52.1076 18.8459 52.3633 19.0163C52.619 19.1811 52.9144 19.326 53.2496 19.451C53.5849 19.5703 53.9428 19.6726 54.3235 19.7578L55.8917 20.1328C56.6531 20.3032 57.3519 20.5305 57.9883 20.8146C58.6246 21.0987 59.1758 21.4481 59.6417 21.8629C60.1076 22.2777 60.4684 22.7663 60.7241 23.3288C60.9854 23.8913 61.119 24.5362 61.1246 25.2635C61.119 26.3317 60.8462 27.2578 60.3065 28.0419C59.7724 28.8203 58.9996 29.4254 57.9883 29.8572C56.9826 30.2834 55.7695 30.4964 54.3491 30.4964C52.94 30.4964 51.7127 30.2805 50.6673 29.8487C49.6275 29.4169 48.815 28.7777 48.2298 27.9311C47.6502 27.0788 47.3462 26.0248 47.3178 24.7692H50.8888C50.9286 25.3544 51.0962 25.843 51.3917 26.2351C51.6928 26.6214 52.0934 26.914 52.5934 27.1129C53.0991 27.3061 53.6701 27.4027 54.3065 27.4027C54.9315 27.4027 55.4741 27.3118 55.9343 27.1299C56.4002 26.9481 56.761 26.6953 57.0167 26.3714C57.2724 26.0476 57.4002 25.6754 57.4002 25.2549C57.4002 24.8629 57.2837 24.5334 57.0508 24.2663C56.8235 23.9993 56.4883 23.772 56.0451 23.5845C55.6076 23.397 55.0707 23.2265 54.4343 23.0731L52.5337 22.5959C51.0621 22.2379 49.9002 21.6782 49.0479 20.9169C48.1957 20.1555 47.7724 19.1299 47.7781 17.8402C47.7724 16.7834 48.0536 15.8601 48.6218 15.0703C49.1957 14.2805 49.9826 13.664 50.9826 13.2209C51.9826 12.7777 53.119 12.5561 54.3917 12.5561C55.6871 12.5561 56.8178 12.7777 57.7837 13.2209C58.7553 13.664 59.511 14.2805 60.0508 15.0703C60.5906 15.8601 60.869 16.7748 60.886 17.8146H57.3491ZM66.2717 30.4964C65.4364 30.4964 64.6921 30.3515 64.0387 30.0618C63.3853 29.7663 62.8683 29.3317 62.4876 28.7578C62.1126 28.1782 61.9251 27.4567 61.9251 26.593C61.9251 25.8657 62.0586 25.2549 62.3256 24.7606C62.5927 24.2663 62.9563 23.8686 63.4165 23.5674C63.8768 23.2663 64.3995 23.039 64.9847 22.8856C65.5756 22.7322 66.195 22.6243 66.8427 22.5618C67.604 22.4822 68.2177 22.4084 68.6836 22.3402C69.1495 22.2663 69.4876 22.1584 69.6978 22.0163C69.908 21.8743 70.0131 21.664 70.0131 21.3856V21.3345C70.0131 20.7947 69.8427 20.3771 69.5018 20.0817C69.1665 19.7862 68.6893 19.6385 68.07 19.6385C67.4165 19.6385 66.8967 19.7834 66.5103 20.0731C66.1239 20.3572 65.8683 20.7152 65.7433 21.147L62.3853 20.8743C62.5558 20.0788 62.891 19.3913 63.391 18.8118C63.891 18.2265 64.5359 17.7777 65.3256 17.4652C66.1211 17.147 67.0415 16.9879 68.087 16.9879C68.8143 16.9879 69.5103 17.0731 70.1751 17.2436C70.8455 17.414 71.4393 17.6782 71.9563 18.0362C72.479 18.3942 72.891 18.8544 73.1921 19.4169C73.4933 19.9737 73.6438 20.6413 73.6438 21.4197V30.2493H70.2006V28.4339H70.0984C69.8881 28.843 69.6069 29.2038 69.2546 29.5163C68.9023 29.8231 68.479 30.0646 67.9847 30.2407C67.4904 30.4112 66.9194 30.4964 66.2717 30.4964ZM67.3114 27.9907C67.8455 27.9907 68.3171 27.8856 68.7262 27.6754C69.1353 27.4595 69.4563 27.1697 69.6893 26.8061C69.9222 26.4424 70.0387 26.0305 70.0387 25.5703V24.1811C69.9251 24.2549 69.7688 24.3231 69.57 24.3856C69.3768 24.4424 69.158 24.4964 68.9137 24.5476C68.6694 24.593 68.4251 24.6356 68.1808 24.6754C67.9364 24.7095 67.7148 24.7407 67.516 24.7692C67.0898 24.8317 66.7177 24.9311 66.3995 25.0674C66.0813 25.2038 65.8342 25.3885 65.658 25.6214C65.4819 25.8487 65.3938 26.1328 65.3938 26.4737C65.3938 26.968 65.5728 27.3459 65.9308 27.6072C66.2944 27.8629 66.7546 27.9907 67.3114 27.9907ZM79.1935 30.4964C78.3583 30.4964 77.614 30.3515 76.9606 30.0618C76.3072 29.7663 75.7901 29.3317 75.4094 28.7578C75.0344 28.1782 74.8469 27.4567 74.8469 26.593C74.8469 25.8657 74.9805 25.2549 75.2475 24.7606C75.5146 24.2663 75.8782 23.8686 76.3384 23.5674C76.7987 23.2663 77.3214 23.039 77.9066 22.8856C78.4975 22.7322 79.1168 22.6243 79.7646 22.5618C80.5259 22.4822 81.1396 22.4084 81.6055 22.3402C82.0714 22.2663 82.4094 22.1584 82.6197 22.0163C82.8299 21.8743 82.935 21.664 82.935 21.3856V21.3345C82.935 20.7947 82.7646 20.3771 82.4237 20.0817C82.0884 19.7862 81.6112 19.6385 80.9918 19.6385C80.3384 19.6385 79.8185 19.7834 79.4322 20.0731C79.0458 20.3572 78.7901 20.7152 78.6651 21.147L75.3072 20.8743C75.4776 20.0788 75.8129 19.3913 76.3129 18.8118C76.8129 18.2265 77.4577 17.7777 78.2475 17.4652C79.043 17.147 79.9634 16.9879 81.0089 16.9879C81.7362 16.9879 82.4322 17.0731 83.0969 17.2436C83.7674 17.414 84.3612 17.6782 84.8782 18.0362C85.4009 18.3942 85.8129 18.8544 86.114 19.4169C86.4151 19.9737 86.5657 20.6413 86.5657 21.4197V30.2493H83.1225V28.4339H83.0202C82.81 28.843 82.5288 29.2038 82.1765 29.5163C81.8242 29.8231 81.4009 30.0646 80.9066 30.2407C80.4123 30.4112 79.8413 30.4964 79.1935 30.4964ZM80.2333 27.9907C80.7674 27.9907 81.239 27.8856 81.6481 27.6754C82.0572 27.4595 82.3782 27.1697 82.6112 26.8061C82.8441 26.4424 82.9606 26.0305 82.9606 25.5703V24.1811C82.8469 24.2549 82.6907 24.3231 82.4918 24.3856C82.2987 24.4424 82.0799 24.4964 81.8356 24.5476C81.5913 24.593 81.3469 24.6356 81.1026 24.6754C80.8583 24.7095 80.6367 24.7407 80.4379 24.7692C80.0117 24.8317 79.6396 24.9311 79.3214 25.0674C79.0032 25.2038 78.756 25.3885 78.5799 25.6214C78.4038 25.8487 78.3157 26.1328 78.3157 26.4737C78.3157 26.968 78.4947 27.3459 78.8526 27.6072C79.2163 27.8629 79.6765 27.9907 80.2333 27.9907ZM97.9194 17.8146C97.8512 17.1271 97.5586 16.593 97.0415 16.2123C96.5245 15.8317 95.8228 15.6413 94.9364 15.6413C94.3342 15.6413 93.8256 15.7265 93.4109 15.897C92.9961 16.0618 92.6779 16.2919 92.4563 16.5873C92.2404 16.8828 92.1325 17.218 92.1325 17.593C92.1211 17.9055 92.1864 18.1782 92.3285 18.4112C92.4762 18.6442 92.6779 18.8459 92.9336 19.0163C93.1893 19.1811 93.4847 19.326 93.82 19.451C94.1552 19.5703 94.5131 19.6726 94.8938 19.7578L96.462 20.1328C97.2234 20.3032 97.9222 20.5305 98.5586 20.8146C99.195 21.0987 99.7461 21.4481 100.212 21.8629C100.678 22.2777 101.039 22.7663 101.294 23.3288C101.556 23.8913 101.689 24.5362 101.695 25.2635C101.689 26.3317 101.417 27.2578 100.877 28.0419C100.343 28.8203 99.57 29.4254 98.5586 29.8572C97.5529 30.2834 96.3398 30.4964 94.9194 30.4964C93.5103 30.4964 92.283 30.2805 91.2376 29.8487C90.1978 29.4169 89.3853 28.7777 88.8001 27.9311C88.2205 27.0788 87.9165 26.0248 87.8881 24.7692H91.4592C91.4989 25.3544 91.6665 25.843 91.962 26.2351C92.2631 26.6214 92.6637 26.914 93.1637 27.1129C93.6694 27.3061 94.2404 27.4027 94.8768 27.4027C95.5018 27.4027 96.0444 27.3118 96.5046 27.1299C96.9705 26.9481 97.3313 26.6953 97.587 26.3714C97.8427 26.0476 97.9705 25.6754 97.9705 25.2549C97.9705 24.8629 97.854 24.5334 97.6211 24.2663C97.3938 23.9993 97.0586 23.772 96.6154 23.5845C96.1779 23.397 95.641 23.2265 95.0046 23.0731L93.104 22.5959C91.6325 22.2379 90.4705 21.6782 89.6183 20.9169C88.766 20.1555 88.3427 19.1299 88.3484 17.8402C88.3427 16.7834 88.6239 15.8601 89.1921 15.0703C89.766 14.2805 90.5529 13.664 91.5529 13.2209C92.5529 12.7777 93.6893 12.5561 94.962 12.5561C96.2575 12.5561 97.3881 12.7777 98.354 13.2209C99.3256 13.664 100.081 14.2805 100.621 15.0703C101.161 15.8601 101.439 16.7748 101.456 17.8146H97.9194ZM107.732 30.2493V12.7947H114.721C116.005 12.7947 117.076 12.9851 117.934 13.3657C118.792 13.7464 119.436 14.2748 119.868 14.951C120.3 15.6214 120.516 16.3942 120.516 17.2692C120.516 17.951 120.38 18.5504 120.107 19.0674C119.834 19.5788 119.459 19.9993 118.982 20.3288C118.51 20.6527 117.971 20.8828 117.363 21.0192V21.1896C118.027 21.218 118.65 21.4055 119.229 21.7521C119.814 22.0987 120.289 22.5845 120.652 23.2095C121.016 23.8288 121.198 24.5674 121.198 25.4254C121.198 26.3515 120.968 27.1782 120.507 27.9055C120.053 28.6271 119.38 29.1981 118.488 29.6186C117.596 30.039 116.496 30.2493 115.189 30.2493H107.732ZM111.422 27.2322H114.431C115.459 27.2322 116.209 27.0362 116.681 26.6442C117.152 26.2464 117.388 25.718 117.388 25.0589C117.388 24.576 117.272 24.1498 117.039 23.7805C116.806 23.4112 116.473 23.1214 116.042 22.9112C115.615 22.701 115.107 22.5959 114.516 22.5959H111.422V27.2322ZM111.422 20.0987H114.158C114.664 20.0987 115.113 20.0106 115.505 19.8345C115.902 19.6527 116.215 19.397 116.442 19.0674C116.675 18.7379 116.792 18.343 116.792 17.8828C116.792 17.2521 116.567 16.7436 116.118 16.3572C115.675 15.9709 115.044 15.7777 114.226 15.7777H111.422V20.0987ZM122.531 30.2493V17.1584H126.051V19.4424H126.187C126.426 18.6299 126.826 18.0163 127.389 17.6015C127.951 17.1811 128.599 16.9709 129.332 16.9709C129.514 16.9709 129.71 16.9822 129.92 17.0049C130.13 17.0277 130.315 17.0589 130.474 17.0987V20.3203C130.304 20.2692 130.068 20.2237 129.767 20.1839C129.466 20.1442 129.19 20.1243 128.94 20.1243C128.406 20.1243 127.929 20.2407 127.508 20.4737C127.093 20.701 126.764 21.0192 126.52 21.4282C126.281 21.8373 126.162 22.3089 126.162 22.843V30.2493H122.531ZM134.709 30.4964C133.874 30.4964 133.13 30.3515 132.476 30.0618C131.823 29.7663 131.306 29.3317 130.925 28.7578C130.55 28.1782 130.363 27.4567 130.363 26.593C130.363 25.8657 130.496 25.2549 130.763 24.7606C131.03 24.2663 131.394 23.8686 131.854 23.5674C132.314 23.2663 132.837 23.039 133.422 22.8856C134.013 22.7322 134.632 22.6243 135.28 22.5618C136.042 22.4822 136.655 22.4084 137.121 22.3402C137.587 22.2663 137.925 22.1584 138.135 22.0163C138.346 21.8743 138.451 21.664 138.451 21.3856V21.3345C138.451 20.7947 138.28 20.3771 137.939 20.0817C137.604 19.7862 137.127 19.6385 136.507 19.6385C135.854 19.6385 135.334 19.7834 134.948 20.0731C134.561 20.3572 134.306 20.7152 134.181 21.147L130.823 20.8743C130.993 20.0788 131.328 19.3913 131.828 18.8118C132.328 18.2265 132.973 17.7777 133.763 17.4652C134.559 17.147 135.479 16.9879 136.525 16.9879C137.252 16.9879 137.948 17.0731 138.613 17.2436C139.283 17.414 139.877 17.6782 140.394 18.0362C140.917 18.3942 141.328 18.8544 141.63 19.4169C141.931 19.9737 142.081 20.6413 142.081 21.4197V30.2493H138.638V28.4339H138.536C138.326 28.843 138.044 29.2038 137.692 29.5163C137.34 29.8231 136.917 30.0646 136.422 30.2407C135.928 30.4112 135.357 30.4964 134.709 30.4964ZM135.749 27.9907C136.283 27.9907 136.755 27.8856 137.164 27.6754C137.573 27.4595 137.894 27.1697 138.127 26.8061C138.36 26.4424 138.476 26.0305 138.476 25.5703V24.1811C138.363 24.2549 138.206 24.3231 138.007 24.3856C137.814 24.4424 137.596 24.4964 137.351 24.5476C137.107 24.593 136.863 24.6356 136.618 24.6754C136.374 24.7095 136.152 24.7407 135.953 24.7692C135.527 24.8317 135.155 24.9311 134.837 25.0674C134.519 25.2038 134.272 25.3885 134.096 25.6214C133.919 25.8487 133.831 26.1328 133.831 26.4737C133.831 26.968 134.01 27.3459 134.368 27.6072C134.732 27.8629 135.192 27.9907 135.749 27.9907ZM147.529 22.6811V30.2493H143.898V17.1584H147.358V19.468H147.512C147.801 18.7067 148.287 18.1044 148.969 17.6612C149.651 17.2123 150.478 16.9879 151.449 16.9879C152.358 16.9879 153.151 17.1868 153.827 17.5845C154.503 17.9822 155.029 18.5504 155.404 19.289C155.779 20.022 155.966 20.897 155.966 21.914V30.2493H152.336V22.5618C152.341 21.7606 152.137 21.1356 151.722 20.6868C151.307 20.2322 150.736 20.0049 150.009 20.0049C149.52 20.0049 149.088 20.1101 148.713 20.3203C148.344 20.5305 148.054 20.8373 147.844 21.2407C147.64 21.6385 147.534 22.1186 147.529 22.6811ZM162.652 30.4623C161.657 30.4623 160.757 30.2067 159.95 29.6953C159.149 29.1782 158.512 28.4197 158.041 27.4197C157.575 26.414 157.342 25.1811 157.342 23.7209C157.342 22.2209 157.583 20.9737 158.066 19.9794C158.549 18.9794 159.191 18.2322 159.993 17.7379C160.799 17.2379 161.683 16.9879 162.643 16.9879C163.376 16.9879 163.987 17.1129 164.475 17.3629C164.97 17.6072 165.368 17.914 165.669 18.2834C165.975 18.647 166.208 19.0049 166.368 19.3572H166.478V12.7947H170.1V30.2493H166.521V28.1527H166.368C166.197 28.5163 165.956 28.8771 165.643 29.2351C165.336 29.5873 164.936 29.8799 164.441 30.1129C163.953 30.3459 163.356 30.4623 162.652 30.4623ZM163.802 27.5731C164.387 27.5731 164.882 27.414 165.285 27.0959C165.694 26.772 166.007 26.3203 166.223 25.7407C166.444 25.1612 166.555 24.4822 166.555 23.7038C166.555 22.9254 166.447 22.2493 166.231 21.6754C166.015 21.1015 165.703 20.6584 165.294 20.3459C164.885 20.0334 164.387 19.8771 163.802 19.8771C163.206 19.8771 162.703 20.039 162.294 20.3629C161.885 20.6868 161.575 21.1356 161.365 21.7095C161.154 22.2834 161.049 22.9481 161.049 23.7038C161.049 24.4652 161.154 25.1385 161.365 25.7237C161.581 26.3032 161.89 26.7578 162.294 27.0873C162.703 27.4112 163.206 27.5731 163.802 27.5731Z" fill="white"/>
<path d="M28.194 23.137C27.862 24.539 27.162 25.827 26.168 26.87L34.081 34.783L36.961 31.903L28.194 23.137ZM26.088 26.953C25.086 27.978 23.83 28.72 22.449 29.104L25.329 39.85L29.262 38.796L26.088 26.953ZM22.303 29.143C21.638 29.314 20.955 29.4 20.269 29.399C19.535 29.4 18.805 29.301 18.097 29.106L15.215 39.863L19.148 40.917L22.303 29.143ZM17.958 29.067C16.596 28.663 15.364 27.91 14.383 26.883L6.451 34.816L9.33 37.696L17.958 29.067ZM14.317 26.813C13.348 25.778 12.667 24.507 12.342 23.127L1.383 26.063L2.437 29.996L14.317 26.813Z" fill="white"/>
</svg>
