<svg width="117" height="41" viewBox="0 0 117 41" fill="none" xmlns="http://www.w3.org/2000/svg">
<path d="M17.4785 14.6328C17.3861 13.6172 16.9753 12.8278 16.2459 12.2646C15.5257 11.6921 14.4962 11.4059 13.1574 11.4059C12.2711 11.4059 11.5324 11.5213 10.9415 11.7522C10.3506 11.983 9.90745 12.3015 9.61199 12.7078C9.31654 13.1048 9.1642 13.5618 9.15496 14.0789C9.1365 14.5036 9.21959 14.8775 9.40425 15.2007C9.59814 15.5238 9.87513 15.81 10.2352 16.0593C10.6045 16.2994 11.0477 16.5117 11.5648 16.6964C12.0818 16.8811 12.6635 17.0426 13.3098 17.1811L15.7473 17.7351C17.1507 18.0398 18.3879 18.446 19.4589 18.9539C20.5392 19.4617 21.444 20.0664 22.1734 20.7681C22.9121 21.4698 23.4707 22.2777 23.8492 23.1918C24.2278 24.1058 24.4217 25.1307 24.4309 26.2664C24.4217 28.0576 23.9692 29.5948 23.0736 30.8782C22.178 32.1616 20.89 33.1449 19.2097 33.8281C17.5385 34.5114 15.5211 34.853 13.1574 34.853C10.7846 34.853 8.7164 34.4975 6.9529 33.7866C5.18941 33.0757 3.81832 31.9954 2.83962 30.5458C1.86093 29.0963 1.35773 27.2635 1.33003 25.0476H7.89466C7.95006 25.9617 8.19474 26.7234 8.62868 27.3328C9.06263 27.9421 9.65816 28.4038 10.4153 28.7177C11.1816 29.0316 12.068 29.1886 13.0744 29.1886C13.9976 29.1886 14.7824 29.0639 15.4288 28.8147C16.0843 28.5654 16.5875 28.2191 16.9383 27.7759C17.2892 27.3328 17.4692 26.825 17.4785 26.2525C17.4692 25.717 17.303 25.26 16.9799 24.8814C16.6567 24.4936 16.1582 24.1612 15.4842 23.8843C14.8194 23.598 13.9699 23.3349 12.9359 23.0948L9.97208 22.4024C7.51611 21.8392 5.58181 20.9297 4.16917 19.674C2.75653 18.4091 2.05482 16.701 2.06405 14.5497C2.05482 12.7955 2.5257 11.2582 3.4767 9.93788C4.42769 8.61756 5.74339 7.58809 7.42378 6.84945C9.10418 6.11082 11.02 5.7415 13.1713 5.7415C15.3687 5.7415 17.2753 6.11543 18.8911 6.8633C20.5161 7.60194 21.7764 8.64065 22.672 9.97943C23.5676 11.3182 24.0246 12.8693 24.0431 14.6328H17.4785ZM32.1526 34.4929H24.7847L34.3546 6.12928H43.4814L53.0514 34.4929H45.6835L39.0219 13.2756H38.8003L32.1526 34.4929ZM31.1693 23.3303H46.5698V28.5377H31.1693V23.3303ZM61.2405 34.4929H53.8726L63.4425 6.12928H72.5693L82.1392 34.4929H74.7714L68.1098 13.2756H67.8882L61.2405 34.4929ZM60.2571 23.3303H75.6577V28.5377H60.2571V23.3303ZM98.6484 14.6328C98.5561 13.6172 98.1452 12.8278 97.4158 12.2646C96.6956 11.6921 95.6661 11.4059 94.3274 11.4059C93.441 11.4059 92.7024 11.5213 92.1115 11.7522C91.5206 11.983 91.0774 12.3015 90.7819 12.7078C90.4865 13.1048 90.3341 13.5618 90.3249 14.0789C90.3064 14.5036 90.3895 14.8775 90.5742 15.2007C90.7681 15.5238 91.0451 15.81 91.4051 16.0593C91.7745 16.2994 92.2176 16.5117 92.7347 16.6964C93.2517 16.8811 93.8334 17.0426 94.4797 17.1811L96.9172 17.7351C98.3206 18.0398 99.5578 18.446 100.629 18.9539C101.709 19.4617 102.614 20.0664 103.343 20.7681C104.082 21.4698 104.641 22.2777 105.019 23.1918C105.398 24.1058 105.592 25.1307 105.601 26.2664C105.592 28.0576 105.139 29.5948 104.244 30.8782C103.348 32.1616 102.06 33.1449 100.38 33.8281C98.7084 34.5114 96.691 34.853 94.3274 34.853C91.9545 34.853 89.8863 34.4975 88.1228 33.7866C86.3593 33.0757 84.9882 31.9954 84.0095 30.5458C83.0309 29.0963 82.5277 27.2635 82.5 25.0476H89.0646C89.12 25.9617 89.3647 26.7234 89.7986 27.3328C90.2326 27.9421 90.8281 28.4038 91.5852 28.7177C92.3515 29.0316 93.2379 29.1886 94.2443 29.1886C95.1676 29.1886 95.9524 29.0639 96.5987 28.8147C97.2542 28.5654 97.7574 28.2191 98.1083 27.7759C98.4591 27.3328 98.6392 26.825 98.6484 26.2525C98.6392 25.717 98.473 25.26 98.1498 24.8814C97.8267 24.4936 97.3281 24.1612 96.6541 23.8843C95.9893 23.598 95.1399 23.3349 94.1058 23.0948L91.142 22.4024C88.686 21.8392 86.7517 20.9297 85.3391 19.674C83.9264 18.4091 83.2247 16.701 83.234 14.5497C83.2247 12.7955 83.6956 11.2582 84.6466 9.93788C85.5976 8.61756 86.9133 7.58809 88.5937 6.84945C90.2741 6.11082 92.1899 5.7415 94.3412 5.7415C96.5387 5.7415 98.4453 6.11543 100.061 6.8633C101.686 7.60194 102.946 8.64065 103.842 9.97943C104.738 11.3182 105.195 12.8693 105.213 14.6328H98.6484ZM108.063 34.4929V13.2202H114.836V34.4929H108.063ZM111.456 10.7411C110.505 10.7411 109.688 10.4272 109.005 9.79938C108.322 9.16231 107.98 8.39597 107.98 7.50038C107.98 6.61401 108.322 5.85691 109.005 5.22907C109.688 4.592 110.505 4.27346 111.456 4.27346C112.417 4.27346 113.234 4.592 113.908 5.22907C114.591 5.85691 114.932 6.61401 114.932 7.50038C114.932 8.39597 114.591 9.16231 113.908 9.79938C113.234 10.4272 112.417 10.7411 111.456 10.7411Z" fill="white"/>
</svg>
