<svg width="20" height="20" viewBox="0 0 20 20" fill="none" xmlns="http://www.w3.org/2000/svg">
<g opacity="0.5">
<path fill-rule="evenodd" clip-rule="evenodd" d="M5.0994 3.32264C5.0994 2.46717 5.80031 1.77426 6.66566 1.77426C7.53102 1.77426 8.23193 2.46717 8.23193 3.32264V4.48393H5.0994V3.32264ZM9.01506 3.32264V4.48393H10.4022C11.5671 4.48393 12.4745 5.48361 12.3483 6.62842L12.1613 8.32875C12.595 8.21939 13.0502 8.16133 13.5181 8.16133C16.5459 8.16133 19 10.5875 19 13.5807C19 16.5739 16.5459 19 13.5181 19C10.689 19 8.36019 16.8816 8.06748 14.1614H3.69172C2.70497 14.1614 1.87192 13.4346 1.74955 12.4659L1.01536 6.65932C0.869505 5.50383 1.78088 4.48386 2.95753 4.48386H4.31627V3.32257C4.31627 2.04031 5.3686 1 6.66566 1C7.96371 1 9.01506 2.04038 9.01506 3.32264ZM8.23193 6.41941V5.25812H5.0994V6.41941C5.0994 6.63328 4.92417 6.8065 4.70783 6.8065C4.49149 6.8065 4.31627 6.63328 4.31627 6.41941V5.25812H2.95753C2.25173 5.25812 1.70452 5.87071 1.79263 6.56359L2.52682 12.3701C2.60024 12.9508 3.09949 13.3872 3.69172 13.3872H8.04016C8.11554 11.2408 9.45469 9.41274 11.3431 8.60461L11.5702 6.54526C11.6456 5.85817 11.1013 5.25817 10.4024 5.25817H9.01522V6.41946C9.01522 6.63332 8.83999 6.80655 8.62365 6.80655C8.40731 6.80655 8.23193 6.63328 8.23193 6.41941ZM13.5181 8.93546C10.9231 8.93546 8.81934 11.0151 8.81934 13.5806C8.81934 16.1461 10.923 18.2258 13.5181 18.2258C16.1132 18.2258 18.2169 16.1461 18.2169 13.5806C18.2169 11.0151 16.1132 8.93546 13.5181 8.93546ZM12.7418 11.258C11.9812 11.258 11.3645 11.8677 11.3645 12.6196C11.3645 13.3716 11.9812 13.9813 12.7418 13.9813H14.3081C14.6282 13.9813 14.8886 14.2377 14.8886 14.5551C14.8886 14.8716 14.6282 15.129 14.3081 15.129H11.9959C11.7805 15.129 11.6043 15.3022 11.6043 15.5161C11.6043 15.73 11.7805 15.9032 11.9959 15.9032H13.1265V16.5806C13.1265 16.7945 13.3018 16.9677 13.5181 16.9677C13.7344 16.9677 13.9097 16.7945 13.9097 16.5806V15.9032H14.3081C15.0609 15.9032 15.6717 15.2993 15.6717 14.5551C15.6717 13.81 15.0609 13.2071 14.3081 13.2071H12.7418C12.4139 13.2071 12.1476 12.9438 12.1476 12.6196C12.1476 12.2955 12.4139 12.0322 12.7418 12.0322H15.2802C15.4965 12.0322 15.6717 11.859 15.6717 11.6451C15.6717 11.4313 15.4965 11.258 15.2802 11.258H14.0076V10.4838C14.0076 10.27 13.8324 10.0968 13.616 10.0968C13.3997 10.0968 13.2244 10.27 13.2244 10.4838V11.258H12.7418Z" fill="white" stroke="white" stroke-width="0.5"/>
</g>
</svg>
