<svg width="18" height="18" viewBox="0 0 18 18" fill="none" xmlns="http://www.w3.org/2000/svg">
<g opacity="0.5">
<path fill-rule="evenodd" clip-rule="evenodd" d="M3.63833 2.22927C2.26344 2.22927 1.14905 3.42154 1.14905 4.89234V11.3995C1.14905 12.433 1.93223 13.2698 2.89733 13.2698C3.34828 13.2698 3.78201 13.4583 4.10563 13.7943L5.92381 15.679L7.2738 14.036C7.67401 13.5495 8.24944 13.2698 8.85549 13.2698H14.3618C15.7367 13.2698 16.851 12.0776 16.851 10.6068V4.89229C16.851 3.42141 15.7366 2.22922 14.3618 2.22922L3.63833 2.22927ZM0 4.89234C0 2.74238 1.6286 1 3.63833 1H14.3617C16.3713 1 18 2.7423 18 4.89234V10.6068C18 12.7568 16.3714 14.4992 14.3617 14.4992H8.85539C8.5806 14.4992 8.31826 14.6262 8.13635 14.8474L6.65327 16.6522C6.2923 17.0916 5.66135 17.1182 5.26786 16.7116L3.30607 14.6764C3.19596 14.5627 3.04947 14.4992 2.89724 14.4992C1.29736 14.4992 9.79413e-05 13.1123 9.79413e-05 11.3998L0 4.89234ZM13.0067 9.60411C13.0067 10.1695 12.5778 10.6284 12.0493 10.6284H8.93573C8.46276 10.6284 8.00701 10.4338 7.66521 10.0845C7.53882 9.95646 7.46798 9.77925 7.46798 9.59284V7.61085C7.46798 7.26567 7.62978 6.94403 7.89882 6.75455L7.97637 6.70027C8.24542 6.51077 8.44168 6.22398 8.52882 5.89211L8.83997 4.71521C8.90891 4.45606 9.12912 4.27783 9.38092 4.27783C9.69113 4.27783 9.94295 4.54721 9.94295 4.87909V6.12155C9.94295 6.5743 10.2857 6.94098 10.7089 6.94098H12.0493C12.5778 6.94098 13.0068 7.39986 13.0068 7.96525L13.0067 9.60411ZM12.0493 11.8576C13.2126 11.8576 14.1557 10.8486 14.1557 9.60411V7.96526C14.1557 6.72075 13.2126 5.71182 12.0493 5.71182H11.0919V4.87907C11.0919 3.8681 10.3259 3.04867 9.38092 3.04867C8.61496 3.04867 7.94284 3.59256 7.73411 4.38126L7.4239 5.55816C7.38752 5.69439 7.18933 5.78146 7.09551 5.86341C6.76327 5.39737 6.2386 5.09724 5.64883 5.09724C4.64446 5.09724 3.82969 5.9689 3.82969 7.04338V10.3211C3.82969 11.3956 4.64446 12.2672 5.64883 12.2672C6.32574 12.2672 6.91553 11.8719 7.22956 11.286C7.72742 11.6557 8.32199 11.8575 8.93571 11.8575L12.0493 11.8576ZM5.64888 11.0381C5.27835 11.0381 4.97866 10.7175 4.97866 10.3211V7.04341C4.97866 6.64702 5.27835 6.32641 5.64888 6.32641C6.0194 6.32641 6.31909 6.64702 6.31909 7.04341V10.3211C6.31909 10.7175 6.0194 11.0381 5.64888 11.0381Z" fill="white"/>
</g>
</svg>
