<svg width="80" height="80" viewBox="0 0 80 80" fill="none" xmlns="http://www.w3.org/2000/svg">
<path d="M22.8252 17.009C22.8269 19.6735 21.9131 22.2562 20.2393 24.317C18.5655 26.3778 16.2354 27.7891 13.646 28.3106C11.0566 28.832 8.36812 28.4313 6.0387 27.1766C3.70929 25.922 1.88307 23.891 0.87122 21.4299C-0.140626 18.9688 -0.275486 16.2298 0.489623 13.6795C1.25473 11.1293 2.87246 8.92573 5.06716 7.44425C7.26186 5.96276 9.89772 5.29506 12.5256 5.55492C15.1535 5.81477 17.6107 6.9861 19.4787 8.86932C21.6175 11.0288 22.8209 13.9558 22.8252 17.009ZM15.4406 21.1147C15.9762 20.5769 16.4004 19.9369 16.6886 19.232C16.9767 18.5271 17.123 17.7715 17.1189 17.009C17.1276 16.2458 16.9834 15.4888 16.695 14.7832C16.4066 14.0777 15.9799 13.4382 15.4406 12.9032C14.3709 11.8211 12.9191 11.2121 11.4045 11.2102C9.88992 11.2083 8.4366 11.8136 7.36427 12.893C6.29194 13.9723 5.68844 15.4374 5.68653 16.9658C5.68462 18.4942 6.28447 19.9608 7.3541 21.0429C8.4375 22.1235 9.89942 22.7296 11.4228 22.7296C12.9461 22.7296 14.408 22.1235 15.4914 21.0429L15.4406 21.1147Z" fill="white"/>
<path d="M8.54407 33.4219C8.54407 32.6596 8.84413 31.9286 9.37824 31.3896C9.91236 30.8507 10.6368 30.5479 11.3921 30.5479C12.1475 30.5479 12.8719 30.8507 13.406 31.3896C13.9401 31.9286 14.2402 32.6596 14.2402 33.4219V71.6259C14.2402 72.3881 13.9401 73.1191 13.406 73.6581C12.8719 74.1971 12.1475 74.4999 11.3921 74.4999C10.6368 74.4999 9.91236 74.1971 9.37824 73.6581C8.84413 73.1191 8.54407 72.3881 8.54407 71.6259V33.4219Z" fill="white"/>
<path d="M37.1265 8.37661C37.17 7.64273 37.4895 6.95329 38.0198 6.44917C38.5501 5.94505 39.2511 5.66431 39.9797 5.66431C40.7082 5.66431 41.4093 5.94505 41.9396 6.44917C42.4699 6.95329 42.7894 7.64273 42.8328 8.37661V42.8649C42.7894 43.5988 42.4699 44.2882 41.9396 44.7923C41.4093 45.2965 40.7082 45.5772 39.9797 45.5772C39.2511 45.5772 38.5501 45.2965 38.0198 44.7923C37.4895 44.2882 37.17 43.5988 37.1265 42.8649V8.37661Z" fill="white"/>
<path d="M36.9487 60.4781C36.9239 60.0814 36.9842 59.684 37.1261 59.3103C37.268 58.9367 37.4883 58.5947 37.7736 58.3054C38.0589 58.0161 38.4031 57.7856 38.7851 57.628C39.167 57.4704 39.5787 57.3892 39.9947 57.3892C40.4108 57.3892 40.8224 57.4704 41.2044 57.628C41.5864 57.7856 41.9306 58.0161 42.2159 58.3054C42.5012 58.5947 42.7215 58.9367 42.8634 59.3103C43.0052 59.684 43.0656 60.0814 43.0408 60.4781V72.0973C42.9944 72.839 42.6533 73.5358 42.0871 74.0453C41.521 74.5548 40.7725 74.8386 39.9947 74.8386C39.2169 74.8386 38.4685 74.5548 37.9023 74.0453C37.3362 73.5358 36.995 72.839 36.9487 72.0973V60.4781Z" fill="white"/>
<path d="M80 34.2326C80.0027 35.7489 79.7044 37.2503 79.1226 38.6483C78.5409 40.0463 77.6875 41.3126 76.6128 42.3723C74.4698 44.5278 71.5674 45.7382 68.5416 45.7382C65.5159 45.7382 62.6135 44.5278 60.4704 42.3723C59.4036 41.3087 58.5566 40.0421 57.9785 38.6457C57.4003 37.2494 57.1027 35.7511 57.1027 34.2378C57.1027 32.7245 57.4003 31.2262 57.9785 29.8298C58.5566 28.4335 59.4036 27.1668 60.4704 26.1033C62.6135 23.9477 65.5159 22.7373 68.5416 22.7373C71.5674 22.7373 74.4698 23.9477 76.6128 26.1033C77.683 27.1637 78.5329 28.4288 79.1128 29.8247C79.6926 31.2206 79.9908 32.7191 79.9898 34.2326H80ZM72.5849 38.3384C73.1261 37.8048 73.5541 37.1656 73.8426 36.4598C74.1311 35.7539 74.2743 34.9961 74.2632 34.2326C74.201 32.7462 73.5721 31.3414 72.5078 30.3118C71.4435 29.2822 70.0262 28.7073 68.5518 28.7073C67.0775 28.7073 65.6601 29.2822 64.5958 30.3118C63.5315 31.3414 62.9026 32.7462 62.8404 34.2326C62.8331 35.3751 63.1627 36.4939 63.7873 37.4468C64.4119 38.3997 65.3032 39.1435 66.348 39.5837C67.3927 40.0239 68.5436 40.1405 69.6542 39.9188C70.7648 39.697 71.785 39.1469 72.5849 38.3384Z" fill="white"/>
<path d="M65.6884 50.707C65.6652 50.3131 65.722 49.9185 65.8553 49.5475C65.9887 49.1765 66.1958 48.837 66.464 48.5498C66.7322 48.2625 67.0557 48.0337 67.4147 47.8773C67.7738 47.7208 68.1607 47.6401 68.5517 47.6401C68.9428 47.6401 69.3298 47.7208 69.6888 47.8773C70.0478 48.0337 70.3713 48.2625 70.6395 48.5498C70.9077 48.837 71.1148 49.1765 71.2482 49.5475C71.3816 49.9185 71.4383 50.3131 71.4151 50.707V71.6258C71.3715 72.3623 71.0509 73.0543 70.5187 73.5603C69.9865 74.0662 69.2829 74.348 68.5517 74.348C67.8206 74.348 67.117 74.0662 66.5848 73.5603C66.0526 73.0543 65.732 72.3623 65.6884 71.6258V50.707Z" fill="white"/>
<path d="M65.6884 8.37656C65.732 7.64001 66.0526 6.94804 66.5848 6.44206C67.117 5.93608 67.8206 5.6543 68.5517 5.6543C69.2829 5.6543 69.9865 5.93608 70.5187 6.44206C71.0509 6.94804 71.3715 7.64001 71.4151 8.37656V25.5694C71.4383 25.9633 71.3816 26.3579 71.2482 26.7288C71.1148 27.0998 70.9077 27.4393 70.6395 27.7266C70.3713 28.0138 70.0478 28.2427 69.6888 28.3991C69.3298 28.5555 68.9428 28.6362 68.5517 28.6362C68.1607 28.6362 67.7738 28.5555 67.4147 28.3991C67.0557 28.2427 66.7322 28.0138 66.464 27.7266C66.1958 27.4393 65.9887 27.0998 65.8553 26.7288C65.722 26.3579 65.6652 25.9633 65.6884 25.5694V8.37656Z" fill="white"/>
<path d="M51.4076 51.4977C51.4117 54.1627 50.4998 56.7466 48.8273 58.8091C47.1549 60.8715 44.8254 62.2848 42.2359 62.8081C39.6464 63.3314 36.9572 62.9322 34.6267 61.6787C32.2962 60.4251 30.4687 58.3948 29.4556 55.9337C28.4425 53.4726 28.3065 50.7332 29.0709 48.1823C29.8353 45.6314 31.4527 43.4269 33.6474 41.9447C35.8422 40.4625 38.4784 39.7942 41.1067 40.0538C43.735 40.3134 46.1928 41.4848 48.0611 43.3683C50.2003 45.5234 51.404 48.4474 51.4076 51.4977ZM44.0229 55.6035C45.0839 54.5215 45.679 53.0609 45.679 51.5388C45.679 50.0167 45.0839 48.556 44.0229 47.4741C43.4919 46.9291 42.8586 46.4963 42.1601 46.2008C41.4615 45.9054 40.7117 45.7532 39.9543 45.7532C39.1969 45.7532 38.447 45.9054 37.7485 46.2008C37.05 46.4963 36.4167 46.9291 35.8856 47.4741C35.3505 48.0043 34.9254 48.6369 34.6353 49.3348C34.3451 50.0327 34.1957 50.7819 34.1957 51.5388C34.1957 52.2956 34.3451 53.0448 34.6353 53.7427C34.9254 54.4406 35.3505 55.0732 35.8856 55.6035C36.9651 56.6916 38.4285 57.3028 39.9543 57.3028C41.4801 57.3028 42.9435 56.6916 44.0229 55.6035Z" fill="#0270ED"/>
</svg>
